<svg width="314" height="216" viewBox="0 0 314 216" fill="none" xmlns="http://www.w3.org/2000/svg">
<path d="M296 182V77L242.5 132.766L207 93.0766L171 132.766L119.5 77L20.5 172.957L14 182H296Z" fill="#ECECEC"/>
<path d="M296 182V77L242.5 132.766L207 93.0766L171 132.766L119.5 77L20.5 172.957L14 182H296Z" fill="url(#paint0_linear)"/>
<path d="M23 172L118 77L172 132L209 95L246 132L295 77" stroke="#7D86EB" stroke-width="4"/>
<rect width="275" height="3" transform="matrix(-1 0 0 1 296 182)" fill="#878787" fill-opacity="0.9"/>
<circle cx="118.5" cy="78.5" r="5" fill="#F4F4F4" stroke="#424CC0"/>
<circle cx="173.5" cy="132.5" r="5" fill="#F4F4F4" stroke="#424CC0"/>
<circle cx="209.5" cy="95.5" r="5" fill="#F4F4F4" stroke="#424CC0"/>
<circle cx="245.5" cy="132.5" r="5" fill="#F4F4F4" stroke="#424CC0"/>
<circle cx="294.5" cy="78.5" r="5" fill="#F4F4F4" stroke="#424CC0"/>
<path d="M34.6533 32H30.4639V31.0234L32.3877 28.5771C32.6318 28.2386 32.8109 27.9424 32.9248 27.6885C33.042 27.4313 33.1006 27.1855 33.1006 26.9512C33.1006 26.6354 33.0452 26.388 32.9346 26.209C32.8271 26.0299 32.6709 25.9404 32.4658 25.9404C32.2412 25.9404 32.0622 26.0446 31.9287 26.2529C31.7985 26.4613 31.7334 26.7542 31.7334 27.1318H30.3467C30.3467 26.6956 30.4362 26.2969 30.6152 25.9355C30.7975 25.5742 31.0514 25.2943 31.377 25.0957C31.7057 24.8939 32.0768 24.793 32.4902 24.793C33.125 24.793 33.6165 24.9688 33.9648 25.3203C34.3164 25.6686 34.4922 26.165 34.4922 26.8096C34.4922 27.21 34.3945 27.6169 34.1992 28.0303C34.0072 28.4404 33.6572 28.9466 33.1494 29.5488L32.2363 30.8525H34.6533V32ZM35.6738 31.2969C35.6738 31.0755 35.7471 30.8932 35.8936 30.75C36.0433 30.6068 36.237 30.5352 36.4746 30.5352C36.7057 30.5352 36.8978 30.6068 37.0508 30.75C37.2038 30.89 37.2803 31.0723 37.2803 31.2969C37.2803 31.5247 37.2021 31.7087 37.0459 31.8486C36.8929 31.9854 36.7025 32.0537 36.4746 32.0537C36.2435 32.0537 36.0514 31.9837 35.8984 31.8438C35.7487 31.7038 35.6738 31.5215 35.6738 31.2969ZM42.5635 29.0605C42.5635 30.0436 42.3844 30.7956 42.0264 31.3164C41.6715 31.8372 41.1637 32.0977 40.5029 32.0977C39.8486 32.0977 39.3424 31.8454 38.9844 31.3408C38.6296 30.833 38.4456 30.1071 38.4326 29.1631V27.8203C38.4326 26.8405 38.61 26.0918 38.9648 25.5742C39.3197 25.0534 39.8291 24.793 40.4932 24.793C41.1572 24.793 41.6667 25.0501 42.0215 25.5645C42.3763 26.0788 42.557 26.8128 42.5635 27.7666V29.0605ZM41.1768 27.6201C41.1768 27.0602 41.1214 26.6403 41.0107 26.3604C40.9001 26.0804 40.7275 25.9404 40.4932 25.9404C40.0537 25.9404 39.8258 26.4531 39.8096 27.4785V29.251C39.8096 29.8239 39.8649 30.2503 39.9756 30.5303C40.0895 30.8102 40.2653 30.9502 40.5029 30.9502C40.7275 30.9502 40.8936 30.82 41.001 30.5596C41.1117 30.2959 41.1702 29.8939 41.1768 29.3535V27.6201ZM47.6221 29.0605C47.6221 30.0436 47.443 30.7956 47.085 31.3164C46.7301 31.8372 46.2223 32.0977 45.5615 32.0977C44.9072 32.0977 44.401 31.8454 44.043 31.3408C43.6882 30.833 43.5042 30.1071 43.4912 29.1631V27.8203C43.4912 26.8405 43.6686 26.0918 44.0234 25.5742C44.3783 25.0534 44.8877 24.793 45.5518 24.793C46.2158 24.793 46.7253 25.0501 47.0801 25.5645C47.4349 26.0788 47.6156 26.8128 47.6221 27.7666V29.0605ZM46.2354 27.6201C46.2354 27.0602 46.18 26.6403 46.0693 26.3604C45.9587 26.0804 45.7861 25.9404 45.5518 25.9404C45.1123 25.9404 44.8844 26.4531 44.8682 27.4785V29.251C44.8682 29.8239 44.9235 30.2503 45.0342 30.5303C45.1481 30.8102 45.3239 30.9502 45.5615 30.9502C45.7861 30.9502 45.9521 30.82 46.0596 30.5596C46.1702 30.2959 46.2288 29.8939 46.2354 29.3535V27.6201ZM52.6807 29.0605C52.6807 30.0436 52.5016 30.7956 52.1436 31.3164C51.7887 31.8372 51.2809 32.0977 50.6201 32.0977C49.9658 32.0977 49.4596 31.8454 49.1016 31.3408C48.7467 30.833 48.5628 30.1071 48.5498 29.1631V27.8203C48.5498 26.8405 48.7272 26.0918 49.082 25.5742C49.4368 25.0534 49.9463 24.793 50.6104 24.793C51.2744 24.793 51.7839 25.0501 52.1387 25.5645C52.4935 26.0788 52.6742 26.8128 52.6807 27.7666V29.0605ZM51.2939 27.6201C51.2939 27.0602 51.2386 26.6403 51.1279 26.3604C51.0173 26.0804 50.8447 25.9404 50.6104 25.9404C50.1709 25.9404 49.943 26.4531 49.9268 27.4785V29.251C49.9268 29.8239 49.9821 30.2503 50.0928 30.5303C50.2067 30.8102 50.3825 30.9502 50.6201 30.9502C50.8447 30.9502 51.0107 30.82 51.1182 30.5596C51.2288 30.2959 51.2874 29.8939 51.2939 29.3535V27.6201Z" fill="#878787"/>
<path d="M26.6338 191.687L24.3877 198H22.9277L25.1836 192.038H22.332V190.891H26.6338V191.687ZM32.6152 198H31.1846V194.958H29.0654V198H27.6299V190.891H29.0654V193.767H31.1846V190.891H32.6152V198Z" fill="#878787"/>
<path d="M72.5059 198H71.1191V192.57L69.7666 193.093V191.94L72.3594 190.881H72.5059V198ZM78.6533 195.061C78.6533 196.044 78.4743 196.796 78.1162 197.316C77.7614 197.837 77.2536 198.098 76.5928 198.098C75.9385 198.098 75.4323 197.845 75.0742 197.341C74.7194 196.833 74.5355 196.107 74.5225 195.163V193.82C74.5225 192.84 74.6999 192.092 75.0547 191.574C75.4095 191.053 75.9189 190.793 76.583 190.793C77.2471 190.793 77.7565 191.05 78.1113 191.564C78.4661 192.079 78.6468 192.813 78.6533 193.767V195.061ZM77.2666 193.62C77.2666 193.06 77.2113 192.64 77.1006 192.36C76.9899 192.08 76.8174 191.94 76.583 191.94C76.1436 191.94 75.9157 192.453 75.8994 193.479V195.251C75.8994 195.824 75.9548 196.25 76.0654 196.53C76.1794 196.81 76.3551 196.95 76.5928 196.95C76.8174 196.95 76.9834 196.82 77.0908 196.56C77.2015 196.296 77.2601 195.894 77.2666 195.354V193.62ZM84.6738 198H83.2432V194.958H81.124V198H79.6885V190.891H81.124V193.767H83.2432V190.891H84.6738V198Z" fill="#878787"/>
<path d="M124.506 198H123.119V192.57L121.767 193.093V191.94L124.359 190.881H124.506V198ZM127.753 193.815H128.422C128.676 193.815 128.861 193.728 128.979 193.552C129.099 193.373 129.159 193.135 129.159 192.839C129.159 192.556 129.097 192.336 128.974 192.18C128.853 192.02 128.69 191.94 128.485 191.94C128.293 191.94 128.135 192.015 128.012 192.165C127.891 192.315 127.831 192.504 127.831 192.731H126.449C126.449 192.36 126.534 192.028 126.703 191.735C126.876 191.439 127.115 191.208 127.421 191.042C127.73 190.876 128.072 190.793 128.446 190.793C129.101 190.793 129.613 190.974 129.984 191.335C130.355 191.696 130.541 192.191 130.541 192.819C130.541 193.142 130.456 193.441 130.287 193.718C130.121 193.991 129.901 194.201 129.628 194.348C129.963 194.491 130.212 194.706 130.375 194.992C130.541 195.279 130.624 195.617 130.624 196.008C130.624 196.639 130.422 197.146 130.019 197.526C129.618 197.907 129.091 198.098 128.437 198.098C127.828 198.098 127.333 197.91 126.952 197.536C126.575 197.159 126.386 196.664 126.386 196.052H127.768C127.768 196.306 127.834 196.519 127.968 196.691C128.101 196.864 128.271 196.95 128.476 196.95C128.713 196.95 128.9 196.862 129.037 196.687C129.177 196.511 129.247 196.276 129.247 195.983C129.247 195.284 128.975 194.932 128.432 194.929H127.753V193.815ZM136.674 198H135.243V194.958H133.124V198H131.688V190.891H133.124V193.767H135.243V190.891H136.674V198Z" fill="#878787"/>
<path d="M176.506 198H175.119V192.57L173.767 193.093V191.94L176.359 190.881H176.506V198ZM181.818 190.817V191.989H181.74C181.223 191.993 180.811 192.149 180.505 192.458C180.202 192.764 180.018 193.194 179.953 193.747C180.249 193.409 180.62 193.239 181.066 193.239C181.581 193.239 181.991 193.459 182.297 193.898C182.606 194.338 182.761 194.924 182.761 195.656C182.761 196.122 182.673 196.542 182.497 196.916C182.321 197.29 182.074 197.582 181.755 197.79C181.439 197.995 181.081 198.098 180.681 198.098C180.036 198.098 179.519 197.839 179.128 197.321C178.741 196.804 178.547 196.107 178.547 195.231V194.719C178.547 193.934 178.669 193.247 178.913 192.658C179.16 192.069 179.515 191.617 179.978 191.301C180.443 190.982 180.985 190.821 181.604 190.817H181.818ZM180.632 194.382C180.456 194.382 180.308 194.437 180.188 194.548C180.07 194.659 179.982 194.795 179.924 194.958V195.456C179.924 195.957 179.991 196.332 180.124 196.579C180.257 196.826 180.433 196.95 180.651 196.95C180.873 196.95 181.05 196.831 181.184 196.594C181.317 196.353 181.384 196.045 181.384 195.671C181.384 195.29 181.314 194.981 181.174 194.743C181.037 194.502 180.856 194.382 180.632 194.382ZM188.674 198H187.243V194.958H185.124V198H183.688V190.891H185.124V193.767H187.243V190.891H188.674V198Z" fill="#878787"/>
<path d="M228.506 198H227.119V192.57L225.767 193.093V191.94L228.359 190.881H228.506V198ZM233.203 195.251C232.91 195.55 232.59 195.7 232.241 195.7C231.701 195.7 231.274 195.484 230.962 195.051C230.653 194.615 230.498 194.034 230.498 193.308C230.498 192.839 230.586 192.411 230.762 192.023C230.938 191.633 231.182 191.33 231.494 191.115C231.81 190.9 232.161 190.793 232.549 190.793C232.949 190.793 233.306 190.912 233.618 191.149C233.931 191.387 234.173 191.729 234.346 192.175C234.518 192.618 234.604 193.122 234.604 193.688V194.191C234.604 195.402 234.338 196.35 233.804 197.033C233.273 197.714 232.52 198.06 231.543 198.073H231.401V196.882H231.494C232.035 196.879 232.44 196.739 232.71 196.462C232.983 196.185 233.148 195.782 233.203 195.251ZM232.593 194.616C232.86 194.616 233.07 194.434 233.223 194.069V193.435C233.223 192.969 233.159 192.604 233.032 192.341C232.905 192.074 232.741 191.94 232.539 191.94C232.34 191.94 232.179 192.072 232.056 192.336C231.935 192.596 231.875 192.915 231.875 193.293C231.875 193.703 231.938 194.027 232.065 194.265C232.192 194.499 232.368 194.616 232.593 194.616ZM240.674 198H239.243V194.958H237.124V198H235.688V190.891H237.124V193.767H239.243V190.891H240.674V198Z" fill="#878787"/>
<path d="M281.653 198H277.464V197.023L279.388 194.577C279.632 194.239 279.811 193.942 279.925 193.688C280.042 193.431 280.101 193.186 280.101 192.951C280.101 192.635 280.045 192.388 279.935 192.209C279.827 192.03 279.671 191.94 279.466 191.94C279.241 191.94 279.062 192.045 278.929 192.253C278.799 192.461 278.733 192.754 278.733 193.132H277.347C277.347 192.696 277.436 192.297 277.615 191.936C277.798 191.574 278.051 191.294 278.377 191.096C278.706 190.894 279.077 190.793 279.49 190.793C280.125 190.793 280.617 190.969 280.965 191.32C281.316 191.669 281.492 192.165 281.492 192.81C281.492 193.21 281.395 193.617 281.199 194.03C281.007 194.44 280.657 194.947 280.149 195.549L279.236 196.853H281.653V198ZM286.712 198H282.522V197.023L284.446 194.577C284.69 194.239 284.869 193.942 284.983 193.688C285.101 193.431 285.159 193.186 285.159 192.951C285.159 192.635 285.104 192.388 284.993 192.209C284.886 192.03 284.729 191.94 284.524 191.94C284.3 191.94 284.121 192.045 283.987 192.253C283.857 192.461 283.792 192.754 283.792 193.132H282.405C282.405 192.696 282.495 192.297 282.674 191.936C282.856 191.574 283.11 191.294 283.436 191.096C283.764 190.894 284.135 190.793 284.549 190.793C285.184 190.793 285.675 190.969 286.023 191.32C286.375 191.669 286.551 192.165 286.551 192.81C286.551 193.21 286.453 193.617 286.258 194.03C286.066 194.44 285.716 194.947 285.208 195.549L284.295 196.853H286.712V198ZM292.674 198H291.243V194.958H289.124V198H287.688V190.891H289.124V193.767H291.243V190.891H292.674V198Z" fill="#878787"/>
<path d="M33.5059 54H32.1191V48.5703L30.7666 49.0928V47.9404L33.3594 46.8809H33.5059V54ZM35.6738 53.2969C35.6738 53.0755 35.7471 52.8932 35.8936 52.75C36.0433 52.6068 36.237 52.5352 36.4746 52.5352C36.7057 52.5352 36.8978 52.6068 37.0508 52.75C37.2038 52.89 37.2803 53.0723 37.2803 53.2969C37.2803 53.5247 37.2021 53.7087 37.0459 53.8486C36.8929 53.9854 36.7025 54.0537 36.4746 54.0537C36.2435 54.0537 36.0514 53.9837 35.8984 53.8438C35.7487 53.7038 35.6738 53.5215 35.6738 53.2969ZM38.5742 50.5039L38.9258 46.8906H42.3682V48.0723H40.0586L39.9316 49.5957C40.1986 49.4167 40.4736 49.3271 40.7568 49.3271C41.3428 49.3271 41.7936 49.5355 42.1094 49.9521C42.4284 50.3688 42.5879 50.958 42.5879 51.7197C42.5879 52.4326 42.3991 53.0072 42.0215 53.4434C41.6439 53.8796 41.1393 54.0977 40.5078 54.0977C40.1335 54.0977 39.7868 54.0098 39.4678 53.834C39.1488 53.6549 38.8965 53.4076 38.7109 53.0918C38.5286 52.776 38.4359 52.418 38.4326 52.0176H39.7998C39.8226 52.3138 39.8958 52.5433 40.0195 52.7061C40.1432 52.8688 40.3027 52.9502 40.498 52.9502C40.7259 52.9502 40.9017 52.8411 41.0254 52.623C41.1491 52.4017 41.2109 52.0729 41.2109 51.6367C41.2109 51.2266 41.1361 50.9173 40.9863 50.709C40.8398 50.5007 40.6331 50.3965 40.3662 50.3965C40.1058 50.3965 39.904 50.486 39.7607 50.665L39.6729 50.7871L38.5742 50.5039ZM47.6221 51.0605C47.6221 52.0436 47.443 52.7956 47.085 53.3164C46.7301 53.8372 46.2223 54.0977 45.5615 54.0977C44.9072 54.0977 44.401 53.8454 44.043 53.3408C43.6882 52.833 43.5042 52.1071 43.4912 51.1631V49.8203C43.4912 48.8405 43.6686 48.0918 44.0234 47.5742C44.3783 47.0534 44.8877 46.793 45.5518 46.793C46.2158 46.793 46.7253 47.0501 47.0801 47.5645C47.4349 48.0788 47.6156 48.8128 47.6221 49.7666V51.0605ZM46.2354 49.6201C46.2354 49.0602 46.18 48.6403 46.0693 48.3604C45.9587 48.0804 45.7861 47.9404 45.5518 47.9404C45.1123 47.9404 44.8844 48.4531 44.8682 49.4785V51.251C44.8682 51.8239 44.9235 52.2503 45.0342 52.5303C45.1481 52.8102 45.3239 52.9502 45.5615 52.9502C45.7861 52.9502 45.9521 52.82 46.0596 52.5596C46.1702 52.2959 46.2288 51.8939 46.2354 51.3535V49.6201ZM52.6807 51.0605C52.6807 52.0436 52.5016 52.7956 52.1436 53.3164C51.7887 53.8372 51.2809 54.0977 50.6201 54.0977C49.9658 54.0977 49.4596 53.8454 49.1016 53.3408C48.7467 52.833 48.5628 52.1071 48.5498 51.1631V49.8203C48.5498 48.8405 48.7272 48.0918 49.082 47.5742C49.4368 47.0534 49.9463 46.793 50.6104 46.793C51.2744 46.793 51.7839 47.0501 52.1387 47.5645C52.4935 48.0788 52.6742 48.8128 52.6807 49.7666V51.0605ZM51.2939 49.6201C51.2939 49.0602 51.2386 48.6403 51.1279 48.3604C51.0173 48.0804 50.8447 47.9404 50.6104 47.9404C50.1709 47.9404 49.943 48.4531 49.9268 49.4785V51.251C49.9268 51.8239 49.9821 52.2503 50.0928 52.5303C50.2067 52.8102 50.3825 52.9502 50.6201 52.9502C50.8447 52.9502 51.0107 52.82 51.1182 52.5596C51.2288 52.2959 51.2874 51.8939 51.2939 51.3535V49.6201Z" fill="#878787"/>
<path d="M33.5059 76H32.1191V70.5703L30.7666 71.0928V69.9404L33.3594 68.8809H33.5059V76ZM35.6738 75.2969C35.6738 75.0755 35.7471 74.8932 35.8936 74.75C36.0433 74.6068 36.237 74.5352 36.4746 74.5352C36.7057 74.5352 36.8978 74.6068 37.0508 74.75C37.2038 74.89 37.2803 75.0723 37.2803 75.2969C37.2803 75.5247 37.2021 75.7087 37.0459 75.8486C36.8929 75.9854 36.7025 76.0537 36.4746 76.0537C36.2435 76.0537 36.0514 75.9837 35.8984 75.8438C35.7487 75.7038 35.6738 75.5215 35.6738 75.2969ZM42.5635 73.0605C42.5635 74.0436 42.3844 74.7956 42.0264 75.3164C41.6715 75.8372 41.1637 76.0977 40.5029 76.0977C39.8486 76.0977 39.3424 75.8454 38.9844 75.3408C38.6296 74.833 38.4456 74.1071 38.4326 73.1631V71.8203C38.4326 70.8405 38.61 70.0918 38.9648 69.5742C39.3197 69.0534 39.8291 68.793 40.4932 68.793C41.1572 68.793 41.6667 69.0501 42.0215 69.5645C42.3763 70.0788 42.557 70.8128 42.5635 71.7666V73.0605ZM41.1768 71.6201C41.1768 71.0602 41.1214 70.6403 41.0107 70.3604C40.9001 70.0804 40.7275 69.9404 40.4932 69.9404C40.0537 69.9404 39.8258 70.4531 39.8096 71.4785V73.251C39.8096 73.8239 39.8649 74.2503 39.9756 74.5303C40.0895 74.8102 40.2653 74.9502 40.5029 74.9502C40.7275 74.9502 40.8936 74.82 41.001 74.5596C41.1117 74.2959 41.1702 73.8939 41.1768 73.3535V71.6201ZM47.6221 73.0605C47.6221 74.0436 47.443 74.7956 47.085 75.3164C46.7301 75.8372 46.2223 76.0977 45.5615 76.0977C44.9072 76.0977 44.401 75.8454 44.043 75.3408C43.6882 74.833 43.5042 74.1071 43.4912 73.1631V71.8203C43.4912 70.8405 43.6686 70.0918 44.0234 69.5742C44.3783 69.0534 44.8877 68.793 45.5518 68.793C46.2158 68.793 46.7253 69.0501 47.0801 69.5645C47.4349 70.0788 47.6156 70.8128 47.6221 71.7666V73.0605ZM46.2354 71.6201C46.2354 71.0602 46.18 70.6403 46.0693 70.3604C45.9587 70.0804 45.7861 69.9404 45.5518 69.9404C45.1123 69.9404 44.8844 70.4531 44.8682 71.4785V73.251C44.8682 73.8239 44.9235 74.2503 45.0342 74.5303C45.1481 74.8102 45.3239 74.9502 45.5615 74.9502C45.7861 74.9502 45.9521 74.82 46.0596 74.5596C46.1702 74.2959 46.2288 73.8939 46.2354 73.3535V71.6201ZM52.6807 73.0605C52.6807 74.0436 52.5016 74.7956 52.1436 75.3164C51.7887 75.8372 51.2809 76.0977 50.6201 76.0977C49.9658 76.0977 49.4596 75.8454 49.1016 75.3408C48.7467 74.833 48.5628 74.1071 48.5498 73.1631V71.8203C48.5498 70.8405 48.7272 70.0918 49.082 69.5742C49.4368 69.0534 49.9463 68.793 50.6104 68.793C51.2744 68.793 51.7839 69.0501 52.1387 69.5645C52.4935 70.0788 52.6742 70.8128 52.6807 71.7666V73.0605ZM51.2939 71.6201C51.2939 71.0602 51.2386 70.6403 51.1279 70.3604C51.0173 70.0804 50.8447 69.9404 50.6104 69.9404C50.1709 69.9404 49.943 70.4531 49.9268 71.4785V73.251C49.9268 73.8239 49.9821 74.2503 50.0928 74.5303C50.2067 74.8102 50.3825 74.9502 50.6201 74.9502C50.8447 74.9502 51.0107 74.82 51.1182 74.5596C51.2288 74.2959 51.2874 73.8939 51.2939 73.3535V71.6201Z" fill="#878787"/>
<path d="M30.6055 94.5039L30.957 90.8906H34.3994V92.0723H32.0898L31.9629 93.5957C32.2298 93.4167 32.5049 93.3271 32.7881 93.3271C33.374 93.3271 33.8249 93.5355 34.1406 93.9521C34.4596 94.3688 34.6191 94.958 34.6191 95.7197C34.6191 96.4326 34.4303 97.0072 34.0527 97.4434C33.6751 97.8796 33.1706 98.0977 32.5391 98.0977C32.1647 98.0977 31.818 98.0098 31.499 97.834C31.18 97.6549 30.9277 97.4076 30.7422 97.0918C30.5599 96.776 30.4671 96.418 30.4639 96.0176H31.8311C31.8538 96.3138 31.9271 96.5433 32.0508 96.7061C32.1745 96.8688 32.334 96.9502 32.5293 96.9502C32.7572 96.9502 32.9329 96.8411 33.0566 96.623C33.1803 96.4017 33.2422 96.0729 33.2422 95.6367C33.2422 95.2266 33.1673 94.9173 33.0176 94.709C32.8711 94.5007 32.6644 94.3965 32.3975 94.3965C32.137 94.3965 31.9352 94.486 31.792 94.665L31.7041 94.7871L30.6055 94.5039ZM39.6533 95.0605C39.6533 96.0436 39.4743 96.7956 39.1162 97.3164C38.7614 97.8372 38.2536 98.0977 37.5928 98.0977C36.9385 98.0977 36.4323 97.8454 36.0742 97.3408C35.7194 96.833 35.5355 96.1071 35.5225 95.1631V93.8203C35.5225 92.8405 35.6999 92.0918 36.0547 91.5742C36.4095 91.0534 36.9189 90.793 37.583 90.793C38.2471 90.793 38.7565 91.0501 39.1113 91.5645C39.4661 92.0788 39.6468 92.8128 39.6533 93.7666V95.0605ZM38.2666 93.6201C38.2666 93.0602 38.2113 92.6403 38.1006 92.3604C37.9899 92.0804 37.8174 91.9404 37.583 91.9404C37.1436 91.9404 36.9157 92.4531 36.8994 93.4785V95.251C36.8994 95.8239 36.9548 96.2503 37.0654 96.5303C37.1794 96.8102 37.3551 96.9502 37.5928 96.9502C37.8174 96.9502 37.9834 96.82 38.0908 96.5596C38.2015 96.2959 38.2601 95.8939 38.2666 95.3535V93.6201ZM44.7119 95.0605C44.7119 96.0436 44.5329 96.7956 44.1748 97.3164C43.82 97.8372 43.3122 98.0977 42.6514 98.0977C41.9971 98.0977 41.4909 97.8454 41.1328 97.3408C40.778 96.833 40.5941 96.1071 40.5811 95.1631V93.8203C40.5811 92.8405 40.7585 92.0918 41.1133 91.5742C41.4681 91.0534 41.9775 90.793 42.6416 90.793C43.3057 90.793 43.8151 91.0501 44.1699 91.5645C44.5247 92.0788 44.7054 92.8128 44.7119 93.7666V95.0605ZM43.3252 93.6201C43.3252 93.0602 43.2699 92.6403 43.1592 92.3604C43.0485 92.0804 42.876 91.9404 42.6416 91.9404C42.2021 91.9404 41.9743 92.4531 41.958 93.4785V95.251C41.958 95.8239 42.0133 96.2503 42.124 96.5303C42.238 96.8102 42.4137 96.9502 42.6514 96.9502C42.876 96.9502 43.042 96.82 43.1494 96.5596C43.2601 96.2959 43.3187 95.8939 43.3252 95.3535V93.6201Z" fill="#878787"/>
<path d="M34.6533 120H30.4639V119.023L32.3877 116.577C32.6318 116.239 32.8109 115.942 32.9248 115.688C33.042 115.431 33.1006 115.186 33.1006 114.951C33.1006 114.635 33.0452 114.388 32.9346 114.209C32.8271 114.03 32.6709 113.94 32.4658 113.94C32.2412 113.94 32.0622 114.045 31.9287 114.253C31.7985 114.461 31.7334 114.754 31.7334 115.132H30.3467C30.3467 114.696 30.4362 114.297 30.6152 113.936C30.7975 113.574 31.0514 113.294 31.377 113.096C31.7057 112.894 32.0768 112.793 32.4902 112.793C33.125 112.793 33.6165 112.969 33.9648 113.32C34.3164 113.669 34.4922 114.165 34.4922 114.81C34.4922 115.21 34.3945 115.617 34.1992 116.03C34.0072 116.44 33.6572 116.947 33.1494 117.549L32.2363 118.853H34.6533V120ZM35.6641 116.504L36.0156 112.891H39.458V114.072H37.1484L37.0215 115.596C37.2884 115.417 37.5635 115.327 37.8467 115.327C38.4326 115.327 38.8835 115.535 39.1992 115.952C39.5182 116.369 39.6777 116.958 39.6777 117.72C39.6777 118.433 39.4889 119.007 39.1113 119.443C38.7337 119.88 38.2292 120.098 37.5977 120.098C37.2233 120.098 36.8766 120.01 36.5576 119.834C36.2386 119.655 35.9863 119.408 35.8008 119.092C35.6185 118.776 35.5257 118.418 35.5225 118.018H36.8896C36.9124 118.314 36.9857 118.543 37.1094 118.706C37.2331 118.869 37.3926 118.95 37.5879 118.95C37.8158 118.95 37.9915 118.841 38.1152 118.623C38.2389 118.402 38.3008 118.073 38.3008 117.637C38.3008 117.227 38.2259 116.917 38.0762 116.709C37.9297 116.501 37.723 116.396 37.4561 116.396C37.1956 116.396 36.9938 116.486 36.8506 116.665L36.7627 116.787L35.6641 116.504ZM44.7119 117.061C44.7119 118.044 44.5329 118.796 44.1748 119.316C43.82 119.837 43.3122 120.098 42.6514 120.098C41.9971 120.098 41.4909 119.845 41.1328 119.341C40.778 118.833 40.5941 118.107 40.5811 117.163V115.82C40.5811 114.84 40.7585 114.092 41.1133 113.574C41.4681 113.053 41.9775 112.793 42.6416 112.793C43.3057 112.793 43.8151 113.05 44.1699 113.564C44.5247 114.079 44.7054 114.813 44.7119 115.767V117.061ZM43.3252 115.62C43.3252 115.06 43.2699 114.64 43.1592 114.36C43.0485 114.08 42.876 113.94 42.6416 113.94C42.2021 113.94 41.9743 114.453 41.958 115.479V117.251C41.958 117.824 42.0133 118.25 42.124 118.53C42.238 118.81 42.4137 118.95 42.6514 118.95C42.876 118.95 43.042 118.82 43.1494 118.56C43.2601 118.296 43.3187 117.894 43.3252 117.354V115.62Z" fill="#878787"/>
<path d="M33.5059 142H32.1191V136.57L30.7666 137.093V135.94L33.3594 134.881H33.5059V142ZM39.6533 139.061C39.6533 140.044 39.4743 140.796 39.1162 141.316C38.7614 141.837 38.2536 142.098 37.5928 142.098C36.9385 142.098 36.4323 141.845 36.0742 141.341C35.7194 140.833 35.5355 140.107 35.5225 139.163V137.82C35.5225 136.84 35.6999 136.092 36.0547 135.574C36.4095 135.053 36.9189 134.793 37.583 134.793C38.2471 134.793 38.7565 135.05 39.1113 135.564C39.4661 136.079 39.6468 136.813 39.6533 137.767V139.061ZM38.2666 137.62C38.2666 137.06 38.2113 136.64 38.1006 136.36C37.9899 136.08 37.8174 135.94 37.583 135.94C37.1436 135.94 36.9157 136.453 36.8994 137.479V139.251C36.8994 139.824 36.9548 140.25 37.0654 140.53C37.1794 140.81 37.3551 140.95 37.5928 140.95C37.8174 140.95 37.9834 140.82 38.0908 140.56C38.2015 140.296 38.2601 139.894 38.2666 139.354V137.62ZM44.7119 139.061C44.7119 140.044 44.5329 140.796 44.1748 141.316C43.82 141.837 43.3122 142.098 42.6514 142.098C41.9971 142.098 41.4909 141.845 41.1328 141.341C40.778 140.833 40.5941 140.107 40.5811 139.163V137.82C40.5811 136.84 40.7585 136.092 41.1133 135.574C41.4681 135.053 41.9775 134.793 42.6416 134.793C43.3057 134.793 43.8151 135.05 44.1699 135.564C44.5247 136.079 44.7054 136.813 44.7119 137.767V139.061ZM43.3252 137.62C43.3252 137.06 43.2699 136.64 43.1592 136.36C43.0485 136.08 42.876 135.94 42.6416 135.94C42.2021 135.94 41.9743 136.453 41.958 137.479V139.251C41.958 139.824 42.0133 140.25 42.124 140.53C42.238 140.81 42.4137 140.95 42.6514 140.95C42.876 140.95 43.042 140.82 43.1494 140.56C43.2601 140.296 43.3187 139.894 43.3252 139.354V137.62Z" fill="#878787"/>
<rect x="21" y="20" width="3" height="162" fill="#878787" fill-opacity="0.9"/>
<defs>
<linearGradient id="paint0_linear" x1="155" y1="77" x2="155" y2="182" gradientUnits="userSpaceOnUse">
<stop stop-color="#7D86EB"/>
<stop offset="1" stop-color="white" stop-opacity="0"/>
</linearGradient>
</defs>
</svg>
