<svg width="314" height="216" viewBox="0 0 314 216" fill="none" xmlns="http://www.w3.org/2000/svg">
<path d="M296 182V77L242.5 132.766L207 93.0766L171 132.766L119.5 77L20.5 172.957L14 182H296Z" fill="#ECECEC"/>
<path d="M296 182V77L242.5 132.766L207 93.0766L171 132.766L119.5 77L20.5 172.957L14 182H296Z" fill="url(#paint0_linear)"/>
<path d="M23 172L118 77L172 132L209 95L246 132L295 77" stroke="#07BF67" stroke-width="4"/>
<rect width="275" height="3" transform="matrix(-1 0 0 1 296 182)" fill="#878787" fill-opacity="0.9"/>
<circle cx="118.5" cy="78.5" r="5" fill="#F4F4F4" stroke="#01A054"/>
<circle cx="173.5" cy="132.5" r="5" fill="#F4F4F4" stroke="#01A054"/>
<circle cx="209.5" cy="95.5" r="5" fill="#F4F4F4" stroke="#01A054"/>
<circle cx="245.5" cy="132.5" r="5" fill="#F4F4F4" stroke="#01A054"/>
<circle cx="294.5" cy="78.5" r="5" fill="#F4F4F4" stroke="#01A054"/>
<path d="M34.6533 32H30.4639V31.0234L32.3877 28.5771C32.6318 28.2386 32.8109 27.9424 32.9248 27.6885C33.042 27.4313 33.1006 27.1855 33.1006 26.9512C33.1006 26.6354 33.0452 26.388 32.9346 26.209C32.8271 26.0299 32.6709 25.9404 32.4658 25.9404C32.2412 25.9404 32.0622 26.0446 31.9287 26.2529C31.7985 26.4613 31.7334 26.7542 31.7334 27.1318H30.3467C30.3467 26.6956 30.4362 26.2969 30.6152 25.9355C30.7975 25.5742 31.0514 25.2943 31.377 25.0957C31.7057 24.8939 32.0768 24.793 32.4902 24.793C33.125 24.793 33.6165 24.9688 33.9648 25.3203C34.3164 25.6686 34.4922 26.165 34.4922 26.8096C34.4922 27.21 34.3945 27.6169 34.1992 28.0303C34.0072 28.4404 33.6572 28.9466 33.1494 29.5488L32.2363 30.8525H34.6533V32ZM35.6738 31.2969C35.6738 31.0755 35.7471 30.8932 35.8936 30.75C36.0433 30.6068 36.237 30.5352 36.4746 30.5352C36.7057 30.5352 36.8978 30.6068 37.0508 30.75C37.2038 30.89 37.2803 31.0723 37.2803 31.2969C37.2803 31.5247 37.2021 31.7087 37.0459 31.8486C36.8929 31.9854 36.7025 32.0537 36.4746 32.0537C36.2435 32.0537 36.0514 31.9837 35.8984 31.8438C35.7487 31.7038 35.6738 31.5215 35.6738 31.2969ZM42.5635 29.0605C42.5635 30.0436 42.3844 30.7956 42.0264 31.3164C41.6715 31.8372 41.1637 32.0977 40.5029 32.0977C39.8486 32.0977 39.3424 31.8454 38.9844 31.3408C38.6296 30.833 38.4456 30.1071 38.4326 29.1631V27.8203C38.4326 26.8405 38.61 26.0918 38.9648 25.5742C39.3197 25.0534 39.8291 24.793 40.4932 24.793C41.1572 24.793 41.6667 25.0501 42.0215 25.5645C42.3763 26.0788 42.557 26.8128 42.5635 27.7666V29.0605ZM41.1768 27.6201C41.1768 27.0602 41.1214 26.6403 41.0107 26.3604C40.9001 26.0804 40.7275 25.9404 40.4932 25.9404C40.0537 25.9404 39.8258 26.4531 39.8096 27.4785V29.251C39.8096 29.8239 39.8649 30.2503 39.9756 30.5303C40.0895 30.8102 40.2653 30.9502 40.5029 30.9502C40.7275 30.9502 40.8936 30.82 41.001 30.5596C41.1117 30.2959 41.1702 29.8939 41.1768 29.3535V27.6201ZM47.6221 29.0605C47.6221 30.0436 47.443 30.7956 47.085 31.3164C46.7301 31.8372 46.2223 32.0977 45.5615 32.0977C44.9072 32.0977 44.401 31.8454 44.043 31.3408C43.6882 30.833 43.5042 30.1071 43.4912 29.1631V27.8203C43.4912 26.8405 43.6686 26.0918 44.0234 25.5742C44.3783 25.0534 44.8877 24.793 45.5518 24.793C46.2158 24.793 46.7253 25.0501 47.0801 25.5645C47.4349 26.0788 47.6156 26.8128 47.6221 27.7666V29.0605ZM46.2354 27.6201C46.2354 27.0602 46.18 26.6403 46.0693 26.3604C45.9587 26.0804 45.7861 25.9404 45.5518 25.9404C45.1123 25.9404 44.8844 26.4531 44.8682 27.4785V29.251C44.8682 29.8239 44.9235 30.2503 45.0342 30.5303C45.1481 30.8102 45.3239 30.9502 45.5615 30.9502C45.7861 30.9502 45.9521 30.82 46.0596 30.5596C46.1702 30.2959 46.2288 29.8939 46.2354 29.3535V27.6201ZM52.6807 29.0605C52.6807 30.0436 52.5016 30.7956 52.1436 31.3164C51.7887 31.8372 51.2809 32.0977 50.6201 32.0977C49.9658 32.0977 49.4596 31.8454 49.1016 31.3408C48.7467 30.833 48.5628 30.1071 48.5498 29.1631V27.8203C48.5498 26.8405 48.7272 26.0918 49.082 25.5742C49.4368 25.0534 49.9463 24.793 50.6104 24.793C51.2744 24.793 51.7839 25.0501 52.1387 25.5645C52.4935 26.0788 52.6742 26.8128 52.6807 27.7666V29.0605ZM51.2939 27.6201C51.2939 27.0602 51.2386 26.6403 51.1279 26.3604C51.0173 26.0804 50.8447 25.9404 50.6104 25.9404C50.1709 25.9404 49.943 26.4531 49.9268 27.4785V29.251C49.9268 29.8239 49.9821 30.2503 50.0928 30.5303C50.2067 30.8102 50.3825 30.9502 50.6201 30.9502C50.8447 30.9502 51.0107 30.82 51.1182 30.5596C51.2288 30.2959 51.2874 29.8939 51.2939 29.3535V27.6201Z" fill="#878787"/>
<path d="M25.5742 196.135C25.5742 195.845 25.4993 195.627 25.3496 195.48C25.2031 195.331 24.9346 195.176 24.5439 195.017C23.8311 194.746 23.3184 194.431 23.0059 194.069C22.6934 193.705 22.5371 193.275 22.5371 192.78C22.5371 192.181 22.7487 191.701 23.1719 191.34C23.5983 190.975 24.1387 190.793 24.793 190.793C25.2292 190.793 25.6182 190.886 25.96 191.071C26.3018 191.254 26.5638 191.512 26.7461 191.848C26.9316 192.183 27.0244 192.564 27.0244 192.99H25.5938C25.5938 192.658 25.5221 192.406 25.3789 192.233C25.2389 192.058 25.0355 191.97 24.7686 191.97C24.5179 191.97 24.3226 192.045 24.1826 192.194C24.0426 192.341 23.9727 192.539 23.9727 192.79C23.9727 192.985 24.0508 193.163 24.207 193.322C24.3633 193.479 24.64 193.641 25.0371 193.811C25.7305 194.061 26.2334 194.369 26.5459 194.733C26.8617 195.098 27.0195 195.562 27.0195 196.125C27.0195 196.743 26.8226 197.227 26.4287 197.575C26.0348 197.924 25.4993 198.098 24.8223 198.098C24.3633 198.098 23.945 198.003 23.5674 197.814C23.1898 197.626 22.8936 197.355 22.6787 197.004C22.4671 196.652 22.3613 196.237 22.3613 195.759H23.8018C23.8018 196.169 23.8815 196.467 24.041 196.652C24.2005 196.838 24.4609 196.931 24.8223 196.931C25.3236 196.931 25.5742 196.665 25.5742 196.135ZM31.6436 194.924H29.4072V196.809H32.0537V198H27.9717V190.891H32.0439V192.087H29.4072V193.767H31.6436V194.924ZM37.7178 197.194C37.4411 197.494 37.1009 197.72 36.6973 197.873C36.2969 198.023 35.8574 198.098 35.3789 198.098C34.5618 198.098 33.9271 197.845 33.4746 197.341C33.0221 196.833 32.7894 196.096 32.7764 195.129V193.85C32.7764 192.87 32.9896 192.116 33.416 191.589C33.8457 191.058 34.4707 190.793 35.291 190.793C36.0625 190.793 36.6436 190.983 37.0342 191.364C37.4281 191.745 37.6559 192.342 37.7178 193.156H36.3213C36.2822 192.704 36.1878 192.396 36.0381 192.233C35.8883 192.067 35.654 191.984 35.335 191.984C34.9476 191.984 34.666 192.126 34.4902 192.409C34.3145 192.692 34.2233 193.143 34.2168 193.762V195.051C34.2168 195.699 34.3128 196.171 34.5049 196.467C34.7002 196.76 35.0192 196.906 35.4619 196.906C35.7451 196.906 35.9746 196.849 36.1504 196.735L36.2773 196.647V195.344H35.2715V194.26H37.7178V197.194Z" fill="#878787"/>
<path d="M74.1758 192.087H72.418V198H70.9775V192.087H69.249V190.891H74.1758V192.087ZM78.6729 194.924H76.4365V196.809H79.083V198H75.001V190.891H79.0732V192.087H76.4365V193.767H78.6729V194.924ZM82.0664 195.402H81.3535V198H79.918V190.891H82.208C82.9274 190.891 83.4824 191.078 83.873 191.452C84.2669 191.823 84.4639 192.352 84.4639 193.039C84.4639 193.983 84.1204 194.644 83.4336 195.021L84.6787 197.932V198H83.1357L82.0664 195.402ZM81.3535 194.206H82.1689C82.4554 194.206 82.6702 194.112 82.8135 193.923C82.9567 193.731 83.0283 193.475 83.0283 193.156C83.0283 192.443 82.75 192.087 82.1934 192.087H81.3535V194.206Z" fill="#878787"/>
<path d="M126.571 194.997C126.571 196.172 126.254 197.027 125.619 197.561L126.601 198.439L125.697 199.27L124.389 198.073L124.013 198.098C123.209 198.098 122.579 197.826 122.123 197.282C121.671 196.735 121.443 195.98 121.439 195.017V193.903C121.439 192.927 121.666 192.165 122.118 191.618C122.571 191.068 123.199 190.793 124.003 190.793C124.787 190.793 125.408 191.057 125.863 191.584C126.319 192.111 126.555 192.852 126.571 193.806V194.997ZM125.131 193.894C125.131 193.246 125.038 192.767 124.853 192.458C124.667 192.149 124.384 191.994 124.003 191.994C123.622 191.994 123.34 192.146 123.158 192.448C122.976 192.748 122.882 193.205 122.875 193.82V194.997C122.875 195.648 122.968 196.128 123.153 196.438C123.342 196.747 123.629 196.901 124.013 196.901C124.387 196.901 124.665 196.748 124.848 196.442C125.033 196.133 125.128 195.663 125.131 195.031V193.894ZM132.23 190.891V195.812C132.224 196.551 132.021 197.118 131.62 197.512C131.22 197.902 130.645 198.098 129.896 198.098C129.135 198.098 128.552 197.899 128.148 197.502C127.748 197.105 127.548 196.53 127.548 195.778V190.891H128.993V195.783C128.993 196.187 129.058 196.475 129.188 196.647C129.319 196.82 129.555 196.906 129.896 196.906C130.238 196.906 130.473 196.822 130.6 196.652C130.727 196.48 130.792 196.198 130.795 195.808V190.891H132.23ZM136.605 196.545H134.647L134.267 198H132.748L134.97 190.891H136.283L138.52 198H136.986L136.605 196.545ZM134.96 195.349H136.288L135.624 192.814L134.96 195.349Z" fill="#878787"/>
<path d="M178.571 194.997C178.571 196.172 178.254 197.027 177.619 197.561L178.601 198.439L177.697 199.27L176.389 198.073L176.013 198.098C175.209 198.098 174.579 197.826 174.123 197.282C173.671 196.735 173.443 195.98 173.439 195.017V193.903C173.439 192.927 173.666 192.165 174.118 191.618C174.571 191.068 175.199 190.793 176.003 190.793C176.787 190.793 177.408 191.057 177.863 191.584C178.319 192.111 178.555 192.852 178.571 193.806V194.997ZM177.131 193.894C177.131 193.246 177.038 192.767 176.853 192.458C176.667 192.149 176.384 191.994 176.003 191.994C175.622 191.994 175.34 192.146 175.158 192.448C174.976 192.748 174.882 193.205 174.875 193.82V194.997C174.875 195.648 174.968 196.128 175.153 196.438C175.342 196.747 175.629 196.901 176.013 196.901C176.387 196.901 176.665 196.748 176.848 196.442C177.033 196.133 177.128 195.663 177.131 195.031V193.894ZM184.23 190.891V195.812C184.224 196.551 184.021 197.118 183.62 197.512C183.22 197.902 182.645 198.098 181.896 198.098C181.135 198.098 180.552 197.899 180.148 197.502C179.748 197.105 179.548 196.53 179.548 195.778V190.891H180.993V195.783C180.993 196.187 181.058 196.475 181.188 196.647C181.319 196.82 181.555 196.906 181.896 196.906C182.238 196.906 182.473 196.822 182.6 196.652C182.727 196.48 182.792 196.198 182.795 195.808V190.891H184.23ZM186.818 198H185.383V190.891H186.818V198Z" fill="#878787"/>
<path d="M228.574 196.135C228.574 195.845 228.499 195.627 228.35 195.48C228.203 195.331 227.935 195.176 227.544 195.017C226.831 194.746 226.318 194.431 226.006 194.069C225.693 193.705 225.537 193.275 225.537 192.78C225.537 192.181 225.749 191.701 226.172 191.34C226.598 190.975 227.139 190.793 227.793 190.793C228.229 190.793 228.618 190.886 228.96 191.071C229.302 191.254 229.564 191.512 229.746 191.848C229.932 192.183 230.024 192.564 230.024 192.99H228.594C228.594 192.658 228.522 192.406 228.379 192.233C228.239 192.058 228.035 191.97 227.769 191.97C227.518 191.97 227.323 192.045 227.183 192.194C227.043 192.341 226.973 192.539 226.973 192.79C226.973 192.985 227.051 193.163 227.207 193.322C227.363 193.479 227.64 193.641 228.037 193.811C228.73 194.061 229.233 194.369 229.546 194.733C229.862 195.098 230.02 195.562 230.02 196.125C230.02 196.743 229.823 197.227 229.429 197.575C229.035 197.924 228.499 198.098 227.822 198.098C227.363 198.098 226.945 198.003 226.567 197.814C226.19 197.626 225.894 197.355 225.679 197.004C225.467 196.652 225.361 196.237 225.361 195.759H226.802C226.802 196.169 226.882 196.467 227.041 196.652C227.201 196.838 227.461 196.931 227.822 196.931C228.324 196.931 228.574 196.665 228.574 196.135ZM234.644 194.924H232.407V196.809H235.054V198H230.972V190.891H235.044V192.087H232.407V193.767H234.644V194.924ZM238.11 193.332L239.067 190.891H240.713L239.043 194.416L240.752 198H239.087L238.11 195.515L237.139 198H235.474L237.183 194.416L235.508 190.891H237.153L238.11 193.332Z" fill="#878787"/>
<path d="M280.574 196.135C280.574 195.845 280.499 195.627 280.35 195.48C280.203 195.331 279.935 195.176 279.544 195.017C278.831 194.746 278.318 194.431 278.006 194.069C277.693 193.705 277.537 193.275 277.537 192.78C277.537 192.181 277.749 191.701 278.172 191.34C278.598 190.975 279.139 190.793 279.793 190.793C280.229 190.793 280.618 190.886 280.96 191.071C281.302 191.254 281.564 191.512 281.746 191.848C281.932 192.183 282.024 192.564 282.024 192.99H280.594C280.594 192.658 280.522 192.406 280.379 192.233C280.239 192.058 280.035 191.97 279.769 191.97C279.518 191.97 279.323 192.045 279.183 192.194C279.043 192.341 278.973 192.539 278.973 192.79C278.973 192.985 279.051 193.163 279.207 193.322C279.363 193.479 279.64 193.641 280.037 193.811C280.73 194.061 281.233 194.369 281.546 194.733C281.862 195.098 282.02 195.562 282.02 196.125C282.02 196.743 281.823 197.227 281.429 197.575C281.035 197.924 280.499 198.098 279.822 198.098C279.363 198.098 278.945 198.003 278.567 197.814C278.19 197.626 277.894 197.355 277.679 197.004C277.467 196.652 277.361 196.237 277.361 195.759H278.802C278.802 196.169 278.882 196.467 279.041 196.652C279.201 196.838 279.461 196.931 279.822 196.931C280.324 196.931 280.574 196.665 280.574 196.135ZM286.365 196.545H284.407L284.026 198H282.508L284.729 190.891H286.043L288.279 198H286.746L286.365 196.545ZM284.72 195.349H286.048L285.384 192.814L284.72 195.349ZM288.948 198V190.891H291.146C291.888 190.891 292.451 191.057 292.835 191.389C293.222 191.717 293.416 192.201 293.416 192.839C293.416 193.2 293.336 193.511 293.177 193.771C293.017 194.032 292.799 194.222 292.522 194.343C292.841 194.434 293.087 194.618 293.26 194.895C293.432 195.168 293.519 195.507 293.519 195.91C293.519 196.6 293.328 197.121 292.947 197.473C292.57 197.824 292.021 198 291.302 198H288.948ZM290.384 194.909V196.809H291.302C291.559 196.809 291.754 196.729 291.888 196.569C292.021 196.41 292.088 196.184 292.088 195.891C292.088 195.253 291.857 194.925 291.395 194.909H290.384ZM290.384 193.864H291.131C291.694 193.864 291.976 193.573 291.976 192.99C291.976 192.668 291.91 192.437 291.78 192.297C291.65 192.157 291.438 192.087 291.146 192.087H290.384V193.864Z" fill="#878787"/>
<path d="M33.5059 54H32.1191V48.5703L30.7666 49.0928V47.9404L33.3594 46.8809H33.5059V54ZM35.6738 53.2969C35.6738 53.0755 35.7471 52.8932 35.8936 52.75C36.0433 52.6068 36.237 52.5352 36.4746 52.5352C36.7057 52.5352 36.8978 52.6068 37.0508 52.75C37.2038 52.89 37.2803 53.0723 37.2803 53.2969C37.2803 53.5247 37.2021 53.7087 37.0459 53.8486C36.8929 53.9854 36.7025 54.0537 36.4746 54.0537C36.2435 54.0537 36.0514 53.9837 35.8984 53.8438C35.7487 53.7038 35.6738 53.5215 35.6738 53.2969ZM38.5742 50.5039L38.9258 46.8906H42.3682V48.0723H40.0586L39.9316 49.5957C40.1986 49.4167 40.4736 49.3271 40.7568 49.3271C41.3428 49.3271 41.7936 49.5355 42.1094 49.9521C42.4284 50.3688 42.5879 50.958 42.5879 51.7197C42.5879 52.4326 42.3991 53.0072 42.0215 53.4434C41.6439 53.8796 41.1393 54.0977 40.5078 54.0977C40.1335 54.0977 39.7868 54.0098 39.4678 53.834C39.1488 53.6549 38.8965 53.4076 38.7109 53.0918C38.5286 52.776 38.4359 52.418 38.4326 52.0176H39.7998C39.8226 52.3138 39.8958 52.5433 40.0195 52.7061C40.1432 52.8688 40.3027 52.9502 40.498 52.9502C40.7259 52.9502 40.9017 52.8411 41.0254 52.623C41.1491 52.4017 41.2109 52.0729 41.2109 51.6367C41.2109 51.2266 41.1361 50.9173 40.9863 50.709C40.8398 50.5007 40.6331 50.3965 40.3662 50.3965C40.1058 50.3965 39.904 50.486 39.7607 50.665L39.6729 50.7871L38.5742 50.5039ZM47.6221 51.0605C47.6221 52.0436 47.443 52.7956 47.085 53.3164C46.7301 53.8372 46.2223 54.0977 45.5615 54.0977C44.9072 54.0977 44.401 53.8454 44.043 53.3408C43.6882 52.833 43.5042 52.1071 43.4912 51.1631V49.8203C43.4912 48.8405 43.6686 48.0918 44.0234 47.5742C44.3783 47.0534 44.8877 46.793 45.5518 46.793C46.2158 46.793 46.7253 47.0501 47.0801 47.5645C47.4349 48.0788 47.6156 48.8128 47.6221 49.7666V51.0605ZM46.2354 49.6201C46.2354 49.0602 46.18 48.6403 46.0693 48.3604C45.9587 48.0804 45.7861 47.9404 45.5518 47.9404C45.1123 47.9404 44.8844 48.4531 44.8682 49.4785V51.251C44.8682 51.8239 44.9235 52.2503 45.0342 52.5303C45.1481 52.8102 45.3239 52.9502 45.5615 52.9502C45.7861 52.9502 45.9521 52.82 46.0596 52.5596C46.1702 52.2959 46.2288 51.8939 46.2354 51.3535V49.6201ZM52.6807 51.0605C52.6807 52.0436 52.5016 52.7956 52.1436 53.3164C51.7887 53.8372 51.2809 54.0977 50.6201 54.0977C49.9658 54.0977 49.4596 53.8454 49.1016 53.3408C48.7467 52.833 48.5628 52.1071 48.5498 51.1631V49.8203C48.5498 48.8405 48.7272 48.0918 49.082 47.5742C49.4368 47.0534 49.9463 46.793 50.6104 46.793C51.2744 46.793 51.7839 47.0501 52.1387 47.5645C52.4935 48.0788 52.6742 48.8128 52.6807 49.7666V51.0605ZM51.2939 49.6201C51.2939 49.0602 51.2386 48.6403 51.1279 48.3604C51.0173 48.0804 50.8447 47.9404 50.6104 47.9404C50.1709 47.9404 49.943 48.4531 49.9268 49.4785V51.251C49.9268 51.8239 49.9821 52.2503 50.0928 52.5303C50.2067 52.8102 50.3825 52.9502 50.6201 52.9502C50.8447 52.9502 51.0107 52.82 51.1182 52.5596C51.2288 52.2959 51.2874 51.8939 51.2939 51.3535V49.6201Z" fill="#878787"/>
<path d="M33.5059 76H32.1191V70.5703L30.7666 71.0928V69.9404L33.3594 68.8809H33.5059V76ZM35.6738 75.2969C35.6738 75.0755 35.7471 74.8932 35.8936 74.75C36.0433 74.6068 36.237 74.5352 36.4746 74.5352C36.7057 74.5352 36.8978 74.6068 37.0508 74.75C37.2038 74.89 37.2803 75.0723 37.2803 75.2969C37.2803 75.5247 37.2021 75.7087 37.0459 75.8486C36.8929 75.9854 36.7025 76.0537 36.4746 76.0537C36.2435 76.0537 36.0514 75.9837 35.8984 75.8438C35.7487 75.7038 35.6738 75.5215 35.6738 75.2969ZM42.5635 73.0605C42.5635 74.0436 42.3844 74.7956 42.0264 75.3164C41.6715 75.8372 41.1637 76.0977 40.5029 76.0977C39.8486 76.0977 39.3424 75.8454 38.9844 75.3408C38.6296 74.833 38.4456 74.1071 38.4326 73.1631V71.8203C38.4326 70.8405 38.61 70.0918 38.9648 69.5742C39.3197 69.0534 39.8291 68.793 40.4932 68.793C41.1572 68.793 41.6667 69.0501 42.0215 69.5645C42.3763 70.0788 42.557 70.8128 42.5635 71.7666V73.0605ZM41.1768 71.6201C41.1768 71.0602 41.1214 70.6403 41.0107 70.3604C40.9001 70.0804 40.7275 69.9404 40.4932 69.9404C40.0537 69.9404 39.8258 70.4531 39.8096 71.4785V73.251C39.8096 73.8239 39.8649 74.2503 39.9756 74.5303C40.0895 74.8102 40.2653 74.9502 40.5029 74.9502C40.7275 74.9502 40.8936 74.82 41.001 74.5596C41.1117 74.2959 41.1702 73.8939 41.1768 73.3535V71.6201ZM47.6221 73.0605C47.6221 74.0436 47.443 74.7956 47.085 75.3164C46.7301 75.8372 46.2223 76.0977 45.5615 76.0977C44.9072 76.0977 44.401 75.8454 44.043 75.3408C43.6882 74.833 43.5042 74.1071 43.4912 73.1631V71.8203C43.4912 70.8405 43.6686 70.0918 44.0234 69.5742C44.3783 69.0534 44.8877 68.793 45.5518 68.793C46.2158 68.793 46.7253 69.0501 47.0801 69.5645C47.4349 70.0788 47.6156 70.8128 47.6221 71.7666V73.0605ZM46.2354 71.6201C46.2354 71.0602 46.18 70.6403 46.0693 70.3604C45.9587 70.0804 45.7861 69.9404 45.5518 69.9404C45.1123 69.9404 44.8844 70.4531 44.8682 71.4785V73.251C44.8682 73.8239 44.9235 74.2503 45.0342 74.5303C45.1481 74.8102 45.3239 74.9502 45.5615 74.9502C45.7861 74.9502 45.9521 74.82 46.0596 74.5596C46.1702 74.2959 46.2288 73.8939 46.2354 73.3535V71.6201ZM52.6807 73.0605C52.6807 74.0436 52.5016 74.7956 52.1436 75.3164C51.7887 75.8372 51.2809 76.0977 50.6201 76.0977C49.9658 76.0977 49.4596 75.8454 49.1016 75.3408C48.7467 74.833 48.5628 74.1071 48.5498 73.1631V71.8203C48.5498 70.8405 48.7272 70.0918 49.082 69.5742C49.4368 69.0534 49.9463 68.793 50.6104 68.793C51.2744 68.793 51.7839 69.0501 52.1387 69.5645C52.4935 70.0788 52.6742 70.8128 52.6807 71.7666V73.0605ZM51.2939 71.6201C51.2939 71.0602 51.2386 70.6403 51.1279 70.3604C51.0173 70.0804 50.8447 69.9404 50.6104 69.9404C50.1709 69.9404 49.943 70.4531 49.9268 71.4785V73.251C49.9268 73.8239 49.9821 74.2503 50.0928 74.5303C50.2067 74.8102 50.3825 74.9502 50.6201 74.9502C50.8447 74.9502 51.0107 74.82 51.1182 74.5596C51.2288 74.2959 51.2874 73.8939 51.2939 73.3535V71.6201Z" fill="#878787"/>
<path d="M30.6055 94.5039L30.957 90.8906H34.3994V92.0723H32.0898L31.9629 93.5957C32.2298 93.4167 32.5049 93.3271 32.7881 93.3271C33.374 93.3271 33.8249 93.5355 34.1406 93.9521C34.4596 94.3688 34.6191 94.958 34.6191 95.7197C34.6191 96.4326 34.4303 97.0072 34.0527 97.4434C33.6751 97.8796 33.1706 98.0977 32.5391 98.0977C32.1647 98.0977 31.818 98.0098 31.499 97.834C31.18 97.6549 30.9277 97.4076 30.7422 97.0918C30.5599 96.776 30.4671 96.418 30.4639 96.0176H31.8311C31.8538 96.3138 31.9271 96.5433 32.0508 96.7061C32.1745 96.8688 32.334 96.9502 32.5293 96.9502C32.7572 96.9502 32.9329 96.8411 33.0566 96.623C33.1803 96.4017 33.2422 96.0729 33.2422 95.6367C33.2422 95.2266 33.1673 94.9173 33.0176 94.709C32.8711 94.5007 32.6644 94.3965 32.3975 94.3965C32.137 94.3965 31.9352 94.486 31.792 94.665L31.7041 94.7871L30.6055 94.5039ZM39.6533 95.0605C39.6533 96.0436 39.4743 96.7956 39.1162 97.3164C38.7614 97.8372 38.2536 98.0977 37.5928 98.0977C36.9385 98.0977 36.4323 97.8454 36.0742 97.3408C35.7194 96.833 35.5355 96.1071 35.5225 95.1631V93.8203C35.5225 92.8405 35.6999 92.0918 36.0547 91.5742C36.4095 91.0534 36.9189 90.793 37.583 90.793C38.2471 90.793 38.7565 91.0501 39.1113 91.5645C39.4661 92.0788 39.6468 92.8128 39.6533 93.7666V95.0605ZM38.2666 93.6201C38.2666 93.0602 38.2113 92.6403 38.1006 92.3604C37.9899 92.0804 37.8174 91.9404 37.583 91.9404C37.1436 91.9404 36.9157 92.4531 36.8994 93.4785V95.251C36.8994 95.8239 36.9548 96.2503 37.0654 96.5303C37.1794 96.8102 37.3551 96.9502 37.5928 96.9502C37.8174 96.9502 37.9834 96.82 38.0908 96.5596C38.2015 96.2959 38.2601 95.8939 38.2666 95.3535V93.6201ZM44.7119 95.0605C44.7119 96.0436 44.5329 96.7956 44.1748 97.3164C43.82 97.8372 43.3122 98.0977 42.6514 98.0977C41.9971 98.0977 41.4909 97.8454 41.1328 97.3408C40.778 96.833 40.5941 96.1071 40.5811 95.1631V93.8203C40.5811 92.8405 40.7585 92.0918 41.1133 91.5742C41.4681 91.0534 41.9775 90.793 42.6416 90.793C43.3057 90.793 43.8151 91.0501 44.1699 91.5645C44.5247 92.0788 44.7054 92.8128 44.7119 93.7666V95.0605ZM43.3252 93.6201C43.3252 93.0602 43.2699 92.6403 43.1592 92.3604C43.0485 92.0804 42.876 91.9404 42.6416 91.9404C42.2021 91.9404 41.9743 92.4531 41.958 93.4785V95.251C41.958 95.8239 42.0133 96.2503 42.124 96.5303C42.238 96.8102 42.4137 96.9502 42.6514 96.9502C42.876 96.9502 43.042 96.82 43.1494 96.5596C43.2601 96.2959 43.3187 95.8939 43.3252 95.3535V93.6201Z" fill="#878787"/>
<path d="M34.6533 120H30.4639V119.023L32.3877 116.577C32.6318 116.239 32.8109 115.942 32.9248 115.688C33.042 115.431 33.1006 115.186 33.1006 114.951C33.1006 114.635 33.0452 114.388 32.9346 114.209C32.8271 114.03 32.6709 113.94 32.4658 113.94C32.2412 113.94 32.0622 114.045 31.9287 114.253C31.7985 114.461 31.7334 114.754 31.7334 115.132H30.3467C30.3467 114.696 30.4362 114.297 30.6152 113.936C30.7975 113.574 31.0514 113.294 31.377 113.096C31.7057 112.894 32.0768 112.793 32.4902 112.793C33.125 112.793 33.6165 112.969 33.9648 113.32C34.3164 113.669 34.4922 114.165 34.4922 114.81C34.4922 115.21 34.3945 115.617 34.1992 116.03C34.0072 116.44 33.6572 116.947 33.1494 117.549L32.2363 118.853H34.6533V120ZM35.6641 116.504L36.0156 112.891H39.458V114.072H37.1484L37.0215 115.596C37.2884 115.417 37.5635 115.327 37.8467 115.327C38.4326 115.327 38.8835 115.535 39.1992 115.952C39.5182 116.369 39.6777 116.958 39.6777 117.72C39.6777 118.433 39.4889 119.007 39.1113 119.443C38.7337 119.88 38.2292 120.098 37.5977 120.098C37.2233 120.098 36.8766 120.01 36.5576 119.834C36.2386 119.655 35.9863 119.408 35.8008 119.092C35.6185 118.776 35.5257 118.418 35.5225 118.018H36.8896C36.9124 118.314 36.9857 118.543 37.1094 118.706C37.2331 118.869 37.3926 118.95 37.5879 118.95C37.8158 118.95 37.9915 118.841 38.1152 118.623C38.2389 118.402 38.3008 118.073 38.3008 117.637C38.3008 117.227 38.2259 116.917 38.0762 116.709C37.9297 116.501 37.723 116.396 37.4561 116.396C37.1956 116.396 36.9938 116.486 36.8506 116.665L36.7627 116.787L35.6641 116.504ZM44.7119 117.061C44.7119 118.044 44.5329 118.796 44.1748 119.316C43.82 119.837 43.3122 120.098 42.6514 120.098C41.9971 120.098 41.4909 119.845 41.1328 119.341C40.778 118.833 40.5941 118.107 40.5811 117.163V115.82C40.5811 114.84 40.7585 114.092 41.1133 113.574C41.4681 113.053 41.9775 112.793 42.6416 112.793C43.3057 112.793 43.8151 113.05 44.1699 113.564C44.5247 114.079 44.7054 114.813 44.7119 115.767V117.061ZM43.3252 115.62C43.3252 115.06 43.2699 114.64 43.1592 114.36C43.0485 114.08 42.876 113.94 42.6416 113.94C42.2021 113.94 41.9743 114.453 41.958 115.479V117.251C41.958 117.824 42.0133 118.25 42.124 118.53C42.238 118.81 42.4137 118.95 42.6514 118.95C42.876 118.95 43.042 118.82 43.1494 118.56C43.2601 118.296 43.3187 117.894 43.3252 117.354V115.62Z" fill="#878787"/>
<path d="M33.5059 142H32.1191V136.57L30.7666 137.093V135.94L33.3594 134.881H33.5059V142ZM39.6533 139.061C39.6533 140.044 39.4743 140.796 39.1162 141.316C38.7614 141.837 38.2536 142.098 37.5928 142.098C36.9385 142.098 36.4323 141.845 36.0742 141.341C35.7194 140.833 35.5355 140.107 35.5225 139.163V137.82C35.5225 136.84 35.6999 136.092 36.0547 135.574C36.4095 135.053 36.9189 134.793 37.583 134.793C38.2471 134.793 38.7565 135.05 39.1113 135.564C39.4661 136.079 39.6468 136.813 39.6533 137.767V139.061ZM38.2666 137.62C38.2666 137.06 38.2113 136.64 38.1006 136.36C37.9899 136.08 37.8174 135.94 37.583 135.94C37.1436 135.94 36.9157 136.453 36.8994 137.479V139.251C36.8994 139.824 36.9548 140.25 37.0654 140.53C37.1794 140.81 37.3551 140.95 37.5928 140.95C37.8174 140.95 37.9834 140.82 38.0908 140.56C38.2015 140.296 38.2601 139.894 38.2666 139.354V137.62ZM44.7119 139.061C44.7119 140.044 44.5329 140.796 44.1748 141.316C43.82 141.837 43.3122 142.098 42.6514 142.098C41.9971 142.098 41.4909 141.845 41.1328 141.341C40.778 140.833 40.5941 140.107 40.5811 139.163V137.82C40.5811 136.84 40.7585 136.092 41.1133 135.574C41.4681 135.053 41.9775 134.793 42.6416 134.793C43.3057 134.793 43.8151 135.05 44.1699 135.564C44.5247 136.079 44.7054 136.813 44.7119 137.767V139.061ZM43.3252 137.62C43.3252 137.06 43.2699 136.64 43.1592 136.36C43.0485 136.08 42.876 135.94 42.6416 135.94C42.2021 135.94 41.9743 136.453 41.958 137.479V139.251C41.958 139.824 42.0133 140.25 42.124 140.53C42.238 140.81 42.4137 140.95 42.6514 140.95C42.876 140.95 43.042 140.82 43.1494 140.56C43.2601 140.296 43.3187 139.894 43.3252 139.354V137.62Z" fill="#878787"/>
<rect x="21" y="20" width="3" height="162" fill="#878787" fill-opacity="0.9"/>
<defs>
<linearGradient id="paint0_linear" x1="155" y1="77" x2="155" y2="182" gradientUnits="userSpaceOnUse">
<stop stop-color="#79BF84"/>
<stop offset="1" stop-color="white" stop-opacity="0"/>
</linearGradient>
</defs>
</svg>
